<?xml version="1.0" encoding="UTF-8"?>
<svg id="Capa_1" data-name="Capa 1" xmlns="http://www.w3.org/2000/svg" viewBox="0 0 1000 1000">
  <defs>
    <style>
      .cls-1 {
        fill: #30a8b8;
      }

      .cls-1, .cls-2 {
        stroke-width: 0px;
      }

      .cls-2 {
        fill: #78c8a8;
      }
    </style>
  </defs>
  <path class="cls-1" d="m511.49,40.68c19.64,5.65,33.5,19.7,48.25,32.66,53,46.57,114.78,74.6,184.29,85.58,19.16,3.03,38.56,4.47,57.82,6.87,52.19,6.51,88.01,45.64,88.13,98.26.16,66.93,1.36,133.99-2.12,200.77-4.6,88.38-23.27,173.89-65.97,252.76-37.52,69.29-89.86,124.8-155.44,168.04-44.11,29.08-91.57,51.36-141.27,69.08-14.85,5.29-29.85,6.43-44.8,1.24-85.48-29.62-163.29-72.04-227.07-137.45-61.22-62.78-99.51-138.09-120.37-222.71-18.15-73.61-23.2-148.64-23.24-224.12-.02-34.67,1.83-69.36,1.34-104.02-.78-54.88,39.02-100.2,98.34-103.19,43.19-2.18,85.2-10.73,125.69-26.4,39.14-15.15,74.44-36.55,105.99-64.1,15-13.1,28.95-27.55,48.91-33.29h21.53ZM165.17,364.64c-1.53,72.75,2.36,145.09,19.67,216.2,21.9,89.98,65.16,166.96,136.29,227.33,51.51,43.72,110.62,73.67,174.02,95.72,4.04,1.4,9.53.74,13.72-.74,41.22-14.55,80.79-32.67,117.87-55.97,69.51-43.68,123.23-101.49,158.29-176.2,30.4-64.78,43.46-133.72,49.35-204.34,5.71-68.36,3.66-136.84,1.77-205.28-.61-22.02-15.44-38.36-37.32-41.54-28.36-4.12-57.1-6.15-85.13-11.79-76.78-15.45-143.76-50.53-200.89-104.27-11.83-11.13-12.24-11.14-24.19.09-57.16,53.72-124.15,88.77-200.93,104.21-27.45,5.52-55.61,7.41-83.37,11.47-24.53,3.59-38.8,19.88-39.04,44.64-.33,33.48-.08,66.96-.08,100.44Z"/>
  <path class="cls-2" d="m500.5,271.09c125.24-.63,227.99,101.82,229.19,228.53,1.18,125.01-103.75,230.04-229.19,229.39-126.3-.65-228.69-103.15-228.73-228.95-.03-125.7,102.5-228.33,228.73-228.97Zm-.16,53.93c-96.92.82-175.83,80.18-174.65,175.63,1.21,97.24,80.61,176,175.84,174.42,97.22-1.61,174.38-79.23,174.12-175.16-.26-96.57-79.59-175.7-175.31-174.89Z"/>
  <path class="cls-2" d="m461.6,537.5c2.42-3.88,3.71-7.13,5.98-9.42,32.01-32.21,64.19-64.25,96.24-96.41,8.12-8.15,17.21-12.79,28.96-9.38,18.67,5.42,25.71,27.09,13.8,42.43-.91,1.18-1.91,2.3-2.97,3.35-40.96,41-81.86,82.07-122.96,122.93-12.96,12.88-27.99,12.69-41.11-.18-15.14-14.85-30.15-29.85-44.98-45.01-11.66-11.92-12.06-28.51-1.37-39.25,10.99-11.04,27-10.76,39.2,1.1,9.18,8.93,17.94,18.28,29.22,29.83Z"/>
</svg>