<?xml version="1.0" encoding="UTF-8"?>
<svg id="Capa_1" data-name="Capa 1" xmlns="http://www.w3.org/2000/svg" viewBox="0 0 1000 1000">
  <defs>
    <style>
      .cls-1 {
        fill: #30a8b8;
      }

      .cls-1, .cls-2 {
        stroke-width: 0px;
      }

      .cls-2 {
        fill: #78c8a8;
      }
    </style>
  </defs>
  <path class="cls-1" d="m500.5,156.5c42.53-32.49,89.55-51.18,141.48-59.16,144.95-22.27,293.23,82.32,320.18,226.44,9.95,53.23,6.21,105.37-11.36,156.56-7.37,21.48-27.08,32.39-47.27,26.12-19.85-6.16-9.16-45.53-2.11-67.08,18.54-56.66,10.48-106.78-15.33-161.22-61.57-129.88-247.82-169.8-353.37-71.75-24.12,22.41-40.54,22.02-65.34.19-62.15-54.72-133.87-71.79-212.58-46.54-77.37,24.83-151.81,103.29-161.56,184.56-10.02,83.49,11.27,149.96,65.49,206.22,59.07,69.77,73.93,80.16,140.73,146.83,13.59,16.2,87.26,60.61,85.47,83.06-2.13,26.71-37.21,35.96-58.43,19.62-2.44-1.88-4.6-4.13-6.79-6.32-65.38-65.36-132.02-129.52-195.82-196.38C34.68,504.15,8.75,394.55,54.83,272.7c42.51-112.41,162.47-185.24,282.4-177.27,60.39,4.01,114.42,24.2,163.26,61.07Z"/>
  <g>
    <path class="cls-1" d="m672.96,903.17c-.49-.42-.91-.98-1.47-1.24-12.89-5.95-19.77-16.12-21.44-30.1-5.45-45.52-10.96-91.03-16.46-136.55-2.84-23.51-5.9-46.99-8.48-70.53-2.98-27.23,20.75-47.81,46.43-40.33,4.44,1.29,8.69,3.63,12.63,6.12,57.77,36.53,115.43,73.24,173.23,109.72,12.19,7.69,20.41,17.55,20.31,32.55-.13,21.24-16.32,36.53-37.84,35.84-14.95-.47-29.89-1.28-44.83-1.93-.78-.03-1.55-.03-3.08-.06,1.11,1.98,1.84,3.42,2.69,4.77,7.68,12.26,14.99,24.78,23.18,36.69,10.82,15.74,3.48,36.63-9.09,44.57-12.5,7.9-32.41,5.33-42.32-11.58-7.4-12.62-15.5-24.83-23.3-37.22-.86-1.37-1.82-2.67-3.21-4.7-5.47,12.71-11.24,24.45-15.62,36.68-6.92,19.31-19.52,30.01-40.5,29.76-3.61-.82-7.22-1.65-10.83-2.47Z"/>
    <path class="cls-2" d="m414.48,544.08c2.82-7.45,5.38-15.02,8.5-22.34,23.02-53.9,61.62-92.68,115.07-116.3,46.66-20.62,95.15-24.42,144.3-10.79,61.63,17.09,107.22,54.8,137.35,111.11,12.99,24.28,20.67,50.3,23.97,77.63,1.36,11.3-5.6,20.99-16.19,22.33-10.06,1.28-19.19-6.63-20.53-17.92-5.82-49.21-26.94-90.4-65.06-122.31-76.16-63.77-192.05-53.35-255.97,22.76-64.89,77.28-56.35,190.23,19.59,256.39,7.27,6.34,15.42,11.71,23.33,17.29,8.98,6.34,11.59,15.47,6.8,25-4.72,9.38-16.36,12.1-26.09,5.88-34.3-21.91-61.11-50.77-79.62-87.05-21.18-41.52-28.34-85.45-21.6-131.61.2-1.38.16-2.79.23-4.18,1.97-8.63,3.94-17.26,5.91-25.89Z"/>
    <path class="cls-2" d="m518.53,581.6c12.28-54.25,64.41-90.79,119.84-84.12,45.3,5.45,82.47,37.94,92.92,81.23,1.83,7.56-.45,14.24-6.2,18.18-6.14,4.21-15.71,4.99-20.95.67-2.99-2.46-5.67-6.23-6.73-9.92-8.39-29.26-34.56-51.4-64.61-54.12-31.35-2.84-60.11,13.44-73.68,41.71-13.93,29.03-6.9,64.39,17.05,85.72.85.76,1.71,1.51,2.52,2.31,7.15,7.08,8.35,17.19,2.79,23.47-7.65,8.66-18.83,10.08-27.02,3.09-29.72-25.39-41.81-57.8-38-96.44.18-1.84.34-3.7.66-5.52.38-2.1.93-4.18,1.41-6.26Z"/>
  </g>
</svg>