<?xml version="1.0" encoding="UTF-8"?>
<svg id="Capa_1" data-name="Capa 1" xmlns="http://www.w3.org/2000/svg" viewBox="0 0 1000 1000">
  <defs>
    <style>
      .cls-1 {
        fill: #30a8b8;
      }

      .cls-1, .cls-2 {
        stroke-width: 0px;
      }

      .cls-2 {
        fill: #78c8a8;
      }
    </style>
  </defs>
  <path class="cls-2" d="m617.47,582.47h-70.28v-70.28c0-19.97-16.34-36.32-36.32-36.32h-21.74c-19.97,0-36.32,16.34-36.32,36.32v70.28h-70.28c-19.97,0-36.32,16.34-36.32,36.32v21.74c0,19.97,16.34,36.32,36.32,36.32h70.28v70.28c0,19.97,16.34,36.32,36.32,36.32h21.74c19.97,0,36.32-16.34,36.32-36.32v-70.28h70.28c19.97,0,36.32-16.34,36.32-36.32v-21.74c0-19.97-16.34-36.32-36.32-36.32Z"/>
  <path class="cls-1" d="m290.71,116.1c4.04-31.34,13.65-43.48,33.47-43.66,20.07-.18,30.26,12.43,34.36,43.03h283.47c0-14.03.93-28.64,14.61-36.69,6.15-3.62,14.08-6.04,21.15-5.92,18.68.3,27.42,12.73,31.47,43.24,3.72,0,7.67-.04,11.62,0,33.22.36,66.61-1.28,99.62,1.53,60.46,5.15,106.62,57.12,107.05,118.01.37,52.75.09,105.51.09,158.27,0,135.66.01,271.32,0,406.98,0,74.85-51.73,126.66-126.49,126.66-200.78.02-401.57.02-602.35,0-74.74,0-126.44-51.83-126.44-126.7-.01-187.05-.04-374.09.02-561.14.02-60.3,38.43-108.42,97-120.91,10.6-2.26,21.77-2.47,32.68-2.59,29.42-.34,58.86-.11,88.7-.11ZM120.54,394.68c0,4.45,0,8.03,0,11.62,0,137.92-.02,275.83.01,413.75,0,39.18,23.77,63.35,62.34,63.36,211.21.03,422.42.03,633.63,0,39.28,0,62.82-24,62.83-63.98.02-137.92.01-275.83,0-413.75,0-3.53-.29-7.05-.46-11H120.54Zm160.26-219.12c-36.09-.19-71.65-1.83-107.07-.14-31.57,1.51-52.63,26.99-53.06,59.63-.22,16.89-.21,33.79-.3,50.68-.09,17.5-.19,35.01-.28,52.76,253.47,1.35,505.71,2.7,757.76,4.05.46-1.26.9-1.92.91-2.57.26-32.68.55-65.37.68-98.05.15-38.76-23.59-63.45-61.49-63.85-29.44-.31-58.89-.37-88.34-.48-3.43-.01-6.85.36-10.05.54-3.75,32.41-13.45,46.01-33.99,46.09-7.07.03-14.98-2.75-21.07-6.61-14.06-8.93-15.63-24.27-15.04-39.86-100-.53-198.6-1.06-297.09-1.59-6.11,34.19-15.73,46.49-36.03,46.5-20.47.02-30.09-12.48-35.54-47.1Z"/>
</svg>