<?xml version="1.0" encoding="UTF-8"?>
<svg id="Capa_1" data-name="Capa 1" xmlns="http://www.w3.org/2000/svg" viewBox="0 0 1000 1000">
  <defs>
    <style>
      .cls-1 {
        fill: #30a8b8;
      }

      .cls-1, .cls-2 {
        stroke-width: 0px;
      }

      .cls-2 {
        fill: #78c8a8;
      }
    </style>
  </defs>
  <path class="cls-1" d="m922.71,193.04v458.96c-3.07,10.76-4.88,22.09-9.42,32.19-22.23,49.45-61.22,74.12-115.16,74.47-65.47.43-130.94,0-196.41.3-5.69.03-12.02,1.69-16.96,4.52-81.29,46.61-162.36,93.6-243.57,140.34-41.18,23.7-85.81-2.24-85.99-49.83-.11-28.61-.01-57.22-.04-85.83,0-2.91-.24-5.82-.4-9.39-4.16,0-7.43.04-10.69,0-18.97-.25-38.01.41-56.9-.97-60.89-4.43-109.47-56.33-109.62-117.63-.34-144.7-.33-289.39,0-434.09.14-64.91,53.45-118.5,118.26-118.6,202.74-.31,405.48-.25,608.22-.03,52.83.06,99.25,35.91,113.82,86.66,1.8,6.26,3.25,12.62,4.87,18.93ZM308.73,861.47c5.98-3.38,10.01-5.61,14-7.91,81.64-47.13,163.2-94.41,245.05-141.18,6.77-3.87,15.46-6.11,23.29-6.16,67.96-.47,135.92-.21,203.88-.36,7.65-.02,15.51-.4,22.91-2.15,31.97-7.55,51.99-34.04,52-68.34.05-140.87.03-281.75.02-422.62,0-44.5-28.12-72.58-72.72-72.58-198.1-.01-396.21-.02-594.31,0-44.48,0-72.59,28.18-72.59,72.71-.01,140.05-.01,280.1,0,420.15,0,44.44,28.13,72.72,72.57,72.91,24.49.1,48.98,0,73.46.02,22.01.02,31.68,9.65,31.7,31.67.04,37.42,0,74.84.04,112.26,0,3.17.37,6.33.7,11.59Z"/>
  <path class="cls-2" d="m644.77,505.89c-.21,4.4-.37,7.6-.51,10.8-1.41,32.78-25.26,56.01-58.1,56.08-64.93.14-129.85.04-194.78.04-28.34,0-56.67.1-85.01-.03-34.42-.15-58.82-24.43-58.87-58.72-.1-66.58-.11-133.16,0-199.73.06-34.24,24.52-58.55,58.99-58.58,92.44-.09,184.88-.06,277.32-.02,34.52.01,56.83,20.24,60.41,54.56.08.81.34,1.6.71,3.27,2.05-.84,4.01-1.41,5.73-2.4,15.26-8.74,30.43-17.65,45.72-26.33,27.63-15.67,56.21.94,56.26,32.74.08,61.63.08,123.25,0,184.88-.04,31.59-28.62,48.12-56.34,32.62-14.63-8.18-29.06-16.72-43.6-25.06-2.26-1.3-4.63-2.41-7.93-4.12Zm-199.17,14.1c45.38,0,90.77-.17,136.15.17,7.73.06,9.91-2.44,9.89-9.9-.22-63.81-.23-127.62.01-191.43.03-7.71-2-10.47-10.18-10.44-90.49.27-180.98.25-271.47.02-7.64-.02-9.88,2.27-9.85,9.88.27,63.81.31,127.62-.04,191.43-.05,8.73,3.02,10.49,11,10.43,44.83-.33,89.66-.16,134.5-.16Zm254.07-176.03c-18.29,10.57-35.41,20.26-52.24,30.45-1.88,1.14-2.92,5.01-2.95,7.64-.25,18.68-.36,37.38.1,56.05.08,3.06,2.48,7.23,5.07,8.86,12.08,7.58,24.6,14.47,36.97,21.58,4.09,2.35,8.22,4.63,13.05,7.34v-131.92Z"/>
</svg>