<?xml version="1.0" encoding="UTF-8"?>
<svg id="Capa_1" data-name="Capa 1" xmlns="http://www.w3.org/2000/svg" viewBox="0 0 1000 1000">
  <defs>
    <style>
      .cls-1 {
        fill: #5ebbc8;
        stroke-width: 0px;
      }
    </style>
  </defs>
  <path class="cls-1" d="m850.17,371.68h-191.1v-191.1c0-54.32-44.44-98.76-98.76-98.76h-59.13c-54.32,0-98.76,44.44-98.76,98.76v191.1h-191.1c-54.32,0-98.76,44.44-98.76,98.76v59.13c0,54.32,44.44,98.76,98.76,98.76h191.1v191.1c0,54.32,44.44,98.76,98.76,98.76h59.13c54.32,0,98.76-44.44,98.76-98.76v-191.1h191.1c54.32,0,98.76-44.44,98.76-98.76v-59.13c0-54.32-44.44-98.76-98.76-98.76Z"/>
</svg>