<?xml version="1.0" encoding="UTF-8"?>
<svg id="Capa_1" data-name="Capa 1" xmlns="http://www.w3.org/2000/svg" viewBox="0 0 1000 1000">
  <defs>
    <style>
      .cls-1 {
        fill: #b0529b;
      }

      .cls-1, .cls-2, .cls-3, .cls-4, .cls-5 {
        stroke-width: 0px;
      }

      .cls-2 {
        fill: #b674b2;
      }

      .cls-3 {
        fill: #f9edf6;
      }

      .cls-4 {
        fill: #dcb2d6;
      }

      .cls-5 {
        fill: #fbfbfb;
      }
    </style>
  </defs>
  <path class="cls-5" d="m604.52,429.74c105.4,0,210.8.09,316.2-.12,12.02-.02,18.57,7.76,18.47,18.44-.24,24.5-.07,49.01-.06,73.51,0,11.2-6.58,17.75-17.85,17.76-210.28,0-420.56,0-630.85-.08-3.36,0-5.06.95-6.65,3.98-8.99,17.08-21.41,31.2-37.35,42.2-13.95,9.63-29.21,16.07-45.89,19.08-21.94,3.96-43.32,1.95-64.15-6.06-16.65-6.4-31.13-16.1-43.3-29.03-13.74-14.59-23.23-31.62-28.3-51.15-2.68-10.33-4.18-20.79-3.98-31.36.42-22.99,6.63-44.32,19.47-63.6,12-18.02,27.54-31.98,47.01-41.45,13.08-6.37,26.87-10.09,41.42-11.43,18.24-1.69,35.84.91,52.83,7.3,14.69,5.52,27.77,13.85,39.14,24.77,7.52,7.22,14.07,15.22,19.42,24.16,1.4,2.33,2.97,3.15,5.71,3.15,79.13-.08,158.26-.06,237.38-.06,27.1,0,54.21,0,81.31,0Zm89.73,93.26c1.14.06,2.28.16,3.41.16,29.58,0,59.15-.17,88.73.07,15.21.12,25.35-10.67,27.02-23.97,1.2-9.5.75-19.08.36-28.59-.47-11.68-8.7-17.58-19.22-17.43-23.35.33-46.7.09-70.05.1-10.06,0-20.13.08-30.19.12-1.35-.03-2.7-.08-4.05-.08-61.27-.03-122.53-.06-183.8-.07-74.66-.01-149.33-.03-223.99.09-3.46,0-5.09-1.04-6.44-4.16-8.6-19.83-22.63-34.9-41.46-45.26-35.45-19.52-79.37-14.45-109.73,12.43-16.05,14.21-26.61,31.92-30.48,52.91-5.56,30.13,1.19,57.47,21.28,81.08,16.74,19.66,38.11,30.59,63.69,33.24,10.23,1.06,20.36.44,30.48-2.2,5.82-1.52,11.63-2.94,17.11-5.37,23.12-10.27,39.65-27.15,49.79-50.28.9-2.05,1.95-2.71,4.13-2.71,105.4.02,210.8,0,316.2-.04,32.4,0,64.8-.03,97.2-.05Z"/>
  <path class="cls-1" d="m857.46,592.75c0,10.79,0,21.58,0,32.37,0,4.19-.57,4.82-4.84,4.89-3.32.05-6.64.1-9.96.04-4.1-.08-4.74-.67-4.75-4.72-.03-15.04.01-30.09.01-45.13,0-6.85-.04-13.69-.03-20.54,0-4.03.67-4.69,4.71-4.7,3.53-.01,7.06-.02,10.58,0,3.51.03,4.25.73,4.26,4.17.02,11.2,0,22.41,0,33.61,0,0,0,0,.01,0Z"/>
  <path class="cls-1" d="m468.53,591.41c0-10.9,0-21.79,0-32.69,0-3.98.45-4.41,4.53-4.43,3.53-.02,7.06-.01,10.59.01,3.65.03,4.35.72,4.35,4.39,0,14.63,0,29.27,0,43.9,0,7.47.02,14.95,0,22.42-.01,3.53-.7,4.22-4.15,4.25-3.84.03-7.68-.07-11.52.03-2.82.07-3.87-1.18-3.85-3.94.07-11.31.03-22.62.03-33.94h.04Z"/>
  <path class="cls-1" d="m673.37,592.35c0,11.11,0,22.21,0,33.32,0,3.59-.58,4.25-4.08,4.32-3.84.07-7.68.01-11.52.04-2.51.02-3.87-1.01-3.86-3.69.04-22.63.05-45.26.05-67.89,0-2.51,1.21-3.51,3.68-3.46,3.73.07,7.47,0,11.21-.02,4.1-.02,4.54.45,4.54,4.7,0,10.9,0,21.79,0,32.69h-.01Z"/>
  <path class="cls-1" d="m291.02,591.9c0-11.1-.02-22.2,0-33.3,0-3.79.53-4.28,4.38-4.3,3.84-.02,7.68.05,11.52,0,2.53-.04,3.55,1.2,3.55,3.62-.01,22.51-.03,45.03.01,67.54,0,2.85-1.3,3.88-4,3.82-3.84-.08-7.68-.12-11.52.01-2.98.1-4.02-1.18-4-4.09.09-11.1.04-22.2.04-33.3h0Z"/>
  <path class="cls-1" d="m355.11,580.52c0,7.16.02,14.32,0,21.48-.01,3.48-.71,4.14-4.22,4.16-3.84.02-7.68-.04-11.52.02-2.56.04-3.87-.99-3.87-3.66.02-14.84,0-29.68,0-44.52,0-2.57,1.12-3.79,3.79-3.73,3.94.09,7.89.1,11.83-.01,2.98-.09,4.05,1.3,4.02,4.15-.08,7.37-.03,14.73-.03,22.1h.01Z"/>
  <path class="cls-1" d="m749.91,581c0-7.26-.03-14.52.02-21.78.02-3.53.75-4.23,4.18-4.26,3.84-.03,7.68.06,11.51-.03,2.61-.06,3.89,1.1,3.89,3.67,0,14.93,0,29.86-.01,44.8,0,2.46-1.3,3.53-3.73,3.49-3.94-.06-7.88-.11-11.82,0-2.96.08-4.09-1.25-4.06-4.11.07-7.26.02-14.52.03-21.78Z"/>
  <path class="cls-1" d="m705.02,580.68c0-7.16-.01-14.31,0-21.47,0-3.54.7-4.24,4.13-4.26,3.73-.02,7.47.11,11.2-.03,2.89-.1,4.16.98,4.14,3.97-.07,14.73-.06,29.46-.01,44.18,0,2.61-.99,3.83-3.66,3.79-4.04-.07-8.09-.07-12.13,0-2.67.05-3.72-1.21-3.71-3.79.05-7.47.02-14.94.02-22.4h.01Z"/>
  <path class="cls-1" d="m380.48,580.1c0-7.15-.01-14.3,0-21.45,0-3.61.72-4.31,4.38-4.33,3.73-.02,7.46.06,11.19-.04,2.75-.07,3.99,1.11,3.99,3.87-.04,14.51,0,29.02-.05,43.53-.01,3.89-.6,4.37-4.6,4.42-3.73.05-7.46,0-11.19.11-2.65.08-3.76-1.11-3.75-3.72.05-7.46.02-14.92.01-22.38Z"/>
  <path class="cls-1" d="m814.13,580.77c0,7.26.02,14.52,0,21.79-.01,3.78-.53,4.28-4.34,4.32-3.73.03-7.47-.05-11.2.02-2.72.05-3.95-1.04-3.94-3.87.08-14.73.09-29.46.04-44.19,0-2.81,1.16-3.96,3.92-3.9,3.94.08,7.89.09,11.83.01,2.64-.05,3.75,1.09,3.73,3.73-.07,7.36-.02,14.73-.02,22.1Z"/>
  <path class="cls-1" d="m425.19,580.32c0-7.26-.02-14.52,0-21.78.01-3.55.65-4.2,4.15-4.23,3.73-.03,7.47.08,11.2-.04,2.83-.08,4.16.91,4.14,3.95-.08,14.73-.05,29.46,0,44.19.01,2.62-1.03,3.82-3.69,3.78-4.04-.07-8.09-.05-12.14,0-2.62.04-3.73-1.14-3.71-3.78.07-7.36.03-14.73.02-22.09Z"/>
  <path class="cls-1" d="m521.05,580.96c0-7.36.07-14.72-.04-22.08-.04-2.81,1.15-3.98,3.88-3.94,4.04.05,8.09.03,12.13.02,2.28,0,3.46,1.04,3.46,3.39,0,15.03,0,30.06.01,45.09,0,2.29-1.04,3.45-3.39,3.42-4.15-.04-8.29-.05-12.44,0-2.67.04-3.65-1.23-3.63-3.83.08-7.36.03-14.72.02-22.08Z"/>
  <path class="cls-1" d="m630.16,580.82c0,7.26.02,14.51,0,21.77-.01,3.59-.62,4.22-4.11,4.25-3.94.04-7.88-.02-11.82.02-2.49.03-3.57-1.16-3.56-3.6.02-14.92.03-29.85,0-44.77,0-2.52,1.26-3.54,3.66-3.53,4.04.03,8.09.06,12.13,0,2.66-.04,3.72,1.22,3.71,3.8-.04,7.36-.02,14.72-.01,22.08Z"/>
  <path class="cls-1" d="m565.97,581.02c0-7.26-.01-14.51,0-21.77,0-3.54.67-4.26,4.1-4.29,3.83-.04,7.67.04,11.51-.02,2.56-.04,3.83.97,3.82,3.66-.04,14.92-.02,29.85,0,44.77,0,2.49-1.16,3.55-3.63,3.5-4.04-.08-8.09-.06-12.13,0-2.62.03-3.72-1.14-3.69-3.78.08-7.36.03-14.72.02-22.08Z"/>
  <g>
    <path class="cls-2" d="m282.48,453.42c-3.46,0-5.09-1.04-6.44-4.16-8.6-19.83-22.63-34.9-41.46-45.26-35.45-19.52-79.37-14.45-109.73,12.43-16.05,14.21-26.61,31.92-30.48,52.91-5.56,30.13,1.19,57.47,21.28,81.08,16.74,19.66,38.11,30.59,63.69,33.24,10.23,1.06,20.36.44,30.48-2.2,5.82-1.52,11.63-2.94,17.11-5.37,23.12-10.27,39.65-27.15,49.79-50.28.9-2.05,1.95-2.71,4.13-2.71,66.8.01,133.6-.01,200.41-.03v-69.74c-66.26,0-132.52-.02-198.77.09Z"/>
    <path class="cls-4" d="m690.28,453.39c-61.27-.03-122.53-.06-183.8-.07-8.41,0-16.81,0-25.22,0v69.74c38.6,0,77.2,0,115.8-.01,32.4,0,64.8-.03,97.2-.05.02-23.18.05-46.36.07-69.53-1.35-.03-2.7-.08-4.04-.08Z"/>
  </g>
  <path class="cls-3" d="m694.25,523.01c.02-23.18.05-46.36.07-69.53,10.06-.04,20.13-.11,30.19-.12,23.35-.02,46.7.22,70.05-.1,10.52-.15,18.75,5.75,19.22,17.43.38,9.51.83,19.09-.36,28.59-1.67,13.3-11.81,24.09-27.02,23.97-29.57-.24-59.15-.06-88.73-.07-1.14,0-2.28-.11-3.41-.16Z"/>
</svg>