<?xml version="1.0" encoding="UTF-8"?>
<svg id="Capa_1" data-name="Capa 1" xmlns="http://www.w3.org/2000/svg" viewBox="0 0 1000 1000">
  <defs>
    <style>
      .cls-1 {
        fill: #96d4c1;
      }

      .cls-1, .cls-2, .cls-3, .cls-4, .cls-5, .cls-6, .cls-7, .cls-8 {
        stroke-width: 0px;
      }

      .cls-2 {
        fill: #ff735d;
      }

      .cls-3 {
        fill: #0b918f;
      }

      .cls-4 {
        fill: #0f6664;
      }

      .cls-5 {
        fill: #63c7ad;
      }

      .cls-6 {
        fill: #fff;
      }

      .cls-7 {
        fill: #007f7a;
      }

      .cls-8 {
        fill: #d5e9df;
      }
    </style>
  </defs>
  <g>
    <g>
      <path class="cls-5" d="m500,305.9c-42.49,0-83.4,6.88-121.7,19.56l52.88,164.4c21.62-7.3,44.77-11.27,68.82-11.27,26.19,0,51.3,4.7,74.54,13.3l55.01-163.73c-40.54-14.39-84.14-22.26-129.55-22.26Z"/>
      <path class="cls-7" d="m888.2,694.1c0-79.55-24.07-153.58-65.28-215.22l-138.61,103.62c19.79,32.57,31.2,70.77,31.2,111.59h172.69Z"/>
      <path class="cls-2" d="m111.8,694.1h172.69c0-41.12,11.58-79.58,31.64-112.3l-137.28-105.55c-42.3,62.16-67.05,137.16-67.05,217.85Z"/>
      <path class="cls-2" d="m178.85,476.25l137.28,105.55c26.18-42.71,66.82-75.65,115.05-91.94l-52.88-164.4c-81.9,27.11-151.81,80.79-199.45,150.79Z"/>
      <path class="cls-2" d="m629.55,328.16l-55.01,163.73c45.99,17.01,84.64,49.27,109.77,90.62l138.61-103.62c-46.16-69.03-113.84-122.49-193.37-150.72Z"/>
    </g>
    <path class="cls-8" d="m111.8,694.1h172.69c0-41.12,11.58-79.58,31.64-112.3l-137.28-105.55c-42.3,62.16-67.05,137.16-67.05,217.85Z"/>
    <path class="cls-1" d="m178.85,476.25l137.28,105.55c26.18-42.71,66.82-75.65,115.05-91.94l-52.88-164.4c-81.9,27.11-151.81,80.79-199.45,150.79Z"/>
    <path class="cls-3" d="m629.55,328.16l-55.01,163.73c45.99,17.01,84.64,49.27,109.77,90.62l138.61-103.62c-46.16-69.03-113.84-122.49-193.37-150.72Z"/>
    <path class="cls-4" d="m888.2,694.1c0-79.55-24.07-153.58-65.28-215.22l-138.61,103.62c19.79,32.57,31.2,70.77,31.2,111.59h172.69Z"/>
    <g>
      <path class="cls-6" d="m136.75,649.37l1.57-6.39,22.4,5.51,3.41-13.84,5.2,1.28-4.98,20.23-27.6-6.79Z"/>
      <path class="cls-6" d="m170.41,627.29c-1.92,1.88-4.15,3.13-6.68,3.74-2.53.61-5.13.5-7.79-.33-2.66-.83-4.86-2.22-6.59-4.17-1.73-1.94-2.85-4.24-3.36-6.88-.51-2.64-.32-5.37.56-8.19.88-2.82,2.28-5.16,4.2-7.03,1.92-1.87,4.14-3.12,6.68-3.74,2.54-.63,5.14-.52,7.8.31,2.66.83,4.86,2.23,6.58,4.19,1.73,1.96,2.85,4.25,3.36,6.88.51,2.63.33,5.35-.55,8.17-.88,2.82-2.28,5.17-4.2,7.05Zm-.89-13.41c-.33-1.52-1.04-2.86-2.13-4.01-1.09-1.15-2.47-1.99-4.15-2.51-1.68-.53-3.29-.63-4.84-.3-1.55.32-2.89,1.02-4.03,2.08-1.14,1.06-1.96,2.39-2.46,4-.5,1.6-.58,3.16-.25,4.69.33,1.52,1.04,2.86,2.13,4.01,1.09,1.15,2.47,1.99,4.15,2.51,1.68.53,3.29.63,4.84.3,1.55-.32,2.89-1.02,4.03-2.08,1.14-1.06,1.96-2.39,2.46-4,.5-1.6.58-3.16.25-4.69Z"/>
      <path class="cls-6" d="m169.53,551.45l22.87,19.28-2.65,6.55-20.19-1.42,15.42,13.21-2.64,6.51-29.86-2,2.56-6.32,20.93,1.55-16.01-13.71,2.28-5.65,21.11,1.53-16.19-13.69,2.36-5.84Z"/>
      <path class="cls-6" d="m435.25,365.8l-3.62-16.67-5.23,15.5-2.9.62-11.01-11.63,3.5,16.32-6.04,1.3-5.97-27.8,5.32-1.14,14.11,15.04,6.54-19.47,5.28-1.13,6.05,27.78-6.04,1.3Z"/>
      <path class="cls-6" d="m468.53,355.94l.63,5.24-21.86,2.61-3.37-28.23,21.33-2.54.63,5.24-14.84,1.77.73,6.13,13.11-1.56.61,5.08-13.11,1.56.78,6.53,15.36-1.83Z"/>
      <path class="cls-6" d="m472.69,332.36l12.91-.52c3.08-.13,5.83.35,8.25,1.43,2.42,1.08,4.32,2.66,5.72,4.75,1.4,2.08,2.16,4.55,2.27,7.39.12,2.84-.44,5.36-1.67,7.55-1.23,2.19-3,3.92-5.32,5.19-2.32,1.27-5.02,1.97-8.11,2.1l-12.9.52-1.15-28.41Zm13.51,22.5c2.84-.11,5.07-1,6.7-2.65,1.63-1.65,2.39-3.83,2.28-6.54-.11-2.7-1.04-4.81-2.8-6.33-1.76-1.51-4.05-2.21-6.89-2.1l-6.01.24.71,17.61,6.01-.24Z"/>
      <path class="cls-6" d="m507.54,331.44l6.58.14-.62,28.42-6.58-.14.61-28.42Z"/>
      <path class="cls-6" d="m523.29,357.35c-2.09-2.4-2.99-5.69-2.69-9.85l1.15-15.88,6.56.47-1.13,15.64c-.37,5.08,1.55,7.77,5.77,8.07,2.05.15,3.66-.35,4.83-1.5,1.17-1.15,1.85-3.04,2.04-5.65l1.13-15.64,6.48.47-1.15,15.88c-.3,4.16-1.66,7.28-4.08,9.36-2.42,2.08-5.65,2.97-9.7,2.68-4.05-.29-7.12-1.64-9.21-4.05Z"/>
      <path class="cls-6" d="m576.69,366.73l2.84-16.82-10.62,12.44-2.92-.5-5.89-14.9-2.82,16.45-6.08-1.04,4.81-28.02,5.36.92,7.5,19.21,13.31-15.64,5.33.91-4.73,28.03-6.08-1.04Z"/>
      <path class="cls-6" d="m841.69,579.18l-26.45,10.43-2.41-6.12,10.85-4.28-4.74-12.01-10.85,4.28-2.41-6.12,26.45-10.43,2.41,6.12-10.43,4.11,4.74,12.01,10.43-4.11,2.41,6.12Z"/>
      <path class="cls-6" d="m844.13,586.54l2.12,6.23-26.92,9.15-2.12-6.23,26.92-9.15Z"/>
      <path class="cls-6" d="m840.89,622.38l1.67,5.77-11.08,3.21c-1.55-1.16-2.91-2.62-4.07-4.4-1.16-1.78-2.03-3.65-2.61-5.63-.82-2.83-.96-5.56-.4-8.17.55-2.61,1.72-4.87,3.49-6.78,1.77-1.91,4.01-3.26,6.72-4.04,2.7-.78,5.32-.84,7.83-.18,2.52.67,4.71,1.97,6.59,3.9,1.87,1.94,3.22,4.34,4.05,7.2.69,2.39.92,4.68.68,6.86-.24,2.18-.94,4.16-2.09,5.93l-4.92-2.97c1.49-2.55,1.83-5.2,1.03-7.95-.5-1.74-1.32-3.18-2.44-4.32-1.12-1.14-2.45-1.9-4-2.27-1.54-.37-3.18-.31-4.89.19-1.69.49-3.09,1.3-4.2,2.44-1.11,1.14-1.84,2.49-2.19,4.04-.35,1.55-.28,3.19.22,4.91.53,1.82,1.39,3.34,2.59,4.58l8-2.32Z"/>
      <path class="cls-6" d="m863.23,657.07l-27.78,6.07-1.4-6.43,11.39-2.49-2.76-12.62-11.39,2.49-1.4-6.43,27.77-6.07,1.4,6.43-10.95,2.39,2.76,12.62,10.95-2.39,1.41,6.43Z"/>
    </g>
    <g>
      <path class="cls-6" d="m136.75,649.37l1.57-6.39,22.4,5.51,3.41-13.84,5.2,1.28-4.98,20.23-27.6-6.79Z"/>
      <path class="cls-6" d="m170.41,627.29c-1.92,1.88-4.15,3.13-6.68,3.74-2.53.61-5.13.5-7.79-.33-2.66-.83-4.86-2.22-6.59-4.17-1.73-1.94-2.85-4.24-3.36-6.88-.51-2.64-.32-5.37.56-8.19.88-2.82,2.28-5.16,4.2-7.03,1.92-1.87,4.14-3.12,6.68-3.74,2.54-.63,5.14-.52,7.8.31,2.66.83,4.86,2.23,6.58,4.19,1.73,1.96,2.85,4.25,3.36,6.88.51,2.63.33,5.35-.55,8.17-.88,2.82-2.28,5.17-4.2,7.05Zm-.89-13.41c-.33-1.52-1.04-2.86-2.13-4.01-1.09-1.15-2.47-1.99-4.15-2.51-1.68-.53-3.29-.63-4.84-.3-1.55.32-2.89,1.02-4.03,2.08-1.14,1.06-1.96,2.39-2.46,4-.5,1.6-.58,3.16-.25,4.69.33,1.52,1.04,2.86,2.13,4.01,1.09,1.15,2.47,1.99,4.15,2.51,1.68.53,3.29.63,4.84.3,1.55-.32,2.89-1.02,4.03-2.08,1.14-1.06,1.96-2.39,2.46-4,.5-1.6.58-3.16.25-4.69Z"/>
      <path class="cls-6" d="m169.53,551.45l22.87,19.28-2.65,6.55-20.19-1.42,15.42,13.21-2.64,6.51-29.86-2,2.56-6.32,20.93,1.55-16.01-13.71,2.28-5.65,21.11,1.53-16.19-13.69,2.36-5.84Z"/>
      <path class="cls-6" d="m435.25,365.8l-3.62-16.67-5.23,15.5-2.9.62-11.01-11.63,3.5,16.32-6.04,1.3-5.97-27.8,5.32-1.14,14.11,15.04,6.54-19.47,5.28-1.13,6.05,27.78-6.04,1.3Z"/>
      <path class="cls-6" d="m468.53,355.94l.63,5.24-21.86,2.61-3.37-28.23,21.33-2.54.63,5.24-14.84,1.77.73,6.13,13.11-1.56.61,5.08-13.11,1.56.78,6.53,15.36-1.83Z"/>
      <path class="cls-6" d="m472.69,332.36l12.91-.52c3.08-.13,5.83.35,8.25,1.43,2.42,1.08,4.32,2.66,5.72,4.75,1.4,2.08,2.16,4.55,2.27,7.39.12,2.84-.44,5.36-1.67,7.55-1.23,2.19-3,3.92-5.32,5.19-2.32,1.27-5.02,1.97-8.11,2.1l-12.9.52-1.15-28.41Zm13.51,22.5c2.84-.11,5.07-1,6.7-2.65,1.63-1.65,2.39-3.83,2.28-6.54-.11-2.7-1.04-4.81-2.8-6.33-1.76-1.51-4.05-2.21-6.89-2.1l-6.01.24.71,17.61,6.01-.24Z"/>
      <path class="cls-6" d="m507.54,331.44l6.58.14-.62,28.42-6.58-.14.61-28.42Z"/>
      <path class="cls-6" d="m523.29,357.35c-2.09-2.4-2.99-5.69-2.69-9.85l1.15-15.88,6.56.47-1.13,15.64c-.37,5.08,1.55,7.77,5.77,8.07,2.05.15,3.66-.35,4.83-1.5,1.17-1.15,1.85-3.04,2.04-5.65l1.13-15.64,6.48.47-1.15,15.88c-.3,4.16-1.66,7.28-4.08,9.36-2.42,2.08-5.65,2.97-9.7,2.68-4.05-.29-7.12-1.64-9.21-4.05Z"/>
      <path class="cls-6" d="m576.69,366.73l2.84-16.82-10.62,12.44-2.92-.5-5.89-14.9-2.82,16.45-6.08-1.04,4.81-28.02,5.36.92,7.5,19.21,13.31-15.64,5.33.91-4.73,28.03-6.08-1.04Z"/>
      <path class="cls-6" d="m841.69,579.18l-26.45,10.43-2.41-6.12,10.85-4.28-4.74-12.01-10.85,4.28-2.41-6.12,26.45-10.43,2.41,6.12-10.43,4.11,4.74,12.01,10.43-4.11,2.41,6.12Z"/>
      <path class="cls-6" d="m844.13,586.54l2.12,6.23-26.92,9.15-2.12-6.23,26.92-9.15Z"/>
      <path class="cls-6" d="m840.89,622.38l1.67,5.77-11.08,3.21c-1.55-1.16-2.91-2.62-4.07-4.4-1.16-1.78-2.03-3.65-2.61-5.63-.82-2.83-.96-5.56-.4-8.17.55-2.61,1.72-4.87,3.49-6.78,1.77-1.91,4.01-3.26,6.72-4.04,2.7-.78,5.32-.84,7.83-.18,2.52.67,4.71,1.97,6.59,3.9,1.87,1.94,3.22,4.34,4.05,7.2.69,2.39.92,4.68.68,6.86-.24,2.18-.94,4.16-2.09,5.93l-4.92-2.97c1.49-2.55,1.83-5.2,1.03-7.95-.5-1.74-1.32-3.18-2.44-4.32-1.12-1.14-2.45-1.9-4-2.27-1.54-.37-3.18-.31-4.89.19-1.69.49-3.09,1.3-4.2,2.44-1.11,1.14-1.84,2.49-2.19,4.04-.35,1.55-.28,3.19.22,4.91.53,1.82,1.39,3.34,2.59,4.58l8-2.32Z"/>
      <path class="cls-6" d="m863.23,657.07l-27.78,6.07-1.4-6.43,11.39-2.49-2.76-12.62-11.39,2.49-1.4-6.43,27.77-6.07,1.4,6.43-10.95,2.39,2.76,12.62,10.95-2.39,1.41,6.43Z"/>
    </g>
  </g>
  <g>
    <g>
      <circle class="cls-4" cx="502.95" cy="655.11" r="38.98" transform="translate(-322.85 641.35) rotate(-51.53)"/>
      <path class="cls-4" d="m269.26,432.2h0c-3.93,3.86-3.89,10.21.08,14.02l224.27,228.85,31.69-28.63-242.58-214.47c-3.83-3.51-9.75-3.41-13.46.23Z"/>
    </g>
    <g>
      <circle class="cls-4" cx="502.95" cy="655.11" r="38.98" transform="translate(-322.85 641.35) rotate(-51.53)"/>
      <path class="cls-4" d="m269.26,432.2h0c-3.93,3.86-3.89,10.21.08,14.02l224.27,228.85,31.69-28.63-242.58-214.47c-3.83-3.51-9.75-3.41-13.46.23Z"/>
    </g>
  </g>
</svg>